# AST/ASF file generated using VICON BodyLanguage
# -----------------------------------------------
:version 1.10
:name VICON
:units
  mass 1.0
  length 0.45
  angle deg
:documentation
   .ast/.asf automatically generated from VICON data using
   VICON BodyBuilder and BodyLanguage model FoxedUp or BRILLIANT.MOD
:root
   order TX TY TZ RX RY RZ
   axis XYZ
   position 0 0 0  
   orientation 0 0 0 
:bonedata
  begin
     id 1 
     name lhipjoint
     direction 0.702568 -0.596508 0.388042 
     length 2.56661 
     axis 0 0 0  XYZ
  end
  begin
     id 2 
     name lfemur
     direction 0.34202 -0.939693 0  
     length 6.58374  
     axis 0 0 20  XYZ
    dof rx ry rz
    limits (-160.0 20.0)
           (-70.0 70.0)
           (-60.0 70.0)
  end
  begin
     id 3 
     name ltibia
     direction 0.34202 -0.939693 0   
     length 6.62538   
     axis 0 0 20   XYZ
    dof rx
    limits (-10.0 170.0)
  end
  begin
     id 4 
     name lfoot
     direction 0.10455 -0.287249 0.952133   
     length 2.26699   
     axis -90 7.62852e-016 20   XYZ
    dof rx rz
    limits (-45.0 90.0)
           (-70.0 20.0)
  end
  begin
     id 5 
     name ltoes
     direction 1.53572e-011 -4.22322e-011 1   
     length 1.12949   
     axis -90 7.62852e-016 20   XYZ
    dof rx
    limits (-90.0 20.0)
  end
  begin
     id 6 
     name rhipjoint
     direction -0.728055 -0.574632 0.373811   
     length 2.66432  
     axis 0 0 0  XYZ 
  end
  begin
     id 7 
     name rfemur
     direction -0.34202 -0.939693 0   
     length 6.66732   
     axis 0 0 -20   XYZ
    dof rx ry rz
    limits (-160.0 20.0)
           (-70.0 70.0)
           (-70.0 60.0)
  end
  begin
     id 8 
     name rtibia
     direction -0.34202 -0.939693 0   
     length 6.59288   
     axis 0 0 -20   XYZ
    dof rx
    limits (-10.0 170.0)
 end
 begin
     id 9 
     name rfoot
     direction -0.119193 -0.327479 0.93731   
     length 2.38061  
     axis -90 -7.62852e-016 -20   XYZ
    dof rx rz
    limits (-45.0 90.0)
           (-20.0 70.0)
  end
  begin
     id 10 
     name rtoes
     direction -1.53547e-011 -4.21827e-011 1   
     length 1.17899   
     axis -90 -7.62852e-016 -20   XYZ
    dof rx
    limits (-90.0 20.0)
  end
  begin
     id 11 
     name lowerback
     direction -0.000416114 0.999912 -0.0132284   
     length 2.12109   
     axis 0 0 0   XYZ
    dof rx ry rz
    limits (-20.0 45.0)
           (-30.0 30.0)
           (-30.0 30.0)
  end
  begin
     id 12 
     name upperback
     direction -0.00136371 0.99809 0.0617608   
     length 2.10067   
     axis 0 0 0   XYZ
    dof rx ry rz
    limits (-20.0 45.0)
           (-30.0 30.0)
           (-30.0 30.0)
  end
  begin
     id 13 
     name thorax
     direction -3.43026e-005 0.997776 0.0666515   
     length 2.10618   
     axis 0 0 0   XYZ
    dof rx ry rz
    limits (-20.0 45.0)
           (-30.0 30.0)
           (-30.0 30.0)
  end
  begin
     id 14 
     name lowerneck
     direction 0.0398646 0.998418 0.0396592   
     length 1.83817   
     axis 0 0 0   XYZ
    dof rx ry rz
    limits (-20.0 45.0)
           (-30.0 30.0)
           (-30.0 30.0)
  end
  begin
     id 15 
     name upperneck
     direction -0.0367268 0.961527 -0.272244   
     length 1.81975   
     axis 0 0 0   XYZ
    dof rx ry rz
    limits (-20.0 45.0)
           (-30.0 30.0)
           (-30.0 30.0)
  end
  begin
     id 16
     name head
     direction -0.0182665 0.99536 -0.0944669  
     length 1.86026  
     axis 0 0 0   XYZ
    dof rx ry rz
    limits (-20.0 45.0)
           (-30.0 30.0)
           (-30.0 30.0)
  end
  begin
     id 17 
     name lclavicle
     direction 0.924239 0.361045 0.124212  
     length 3.26878  
     axis 0 0 0   XYZ
    dof ry rz
    limits (-20.0 10.0)
           (0.0 20.0)
  end
  begin
     id 18 
     name lhumerus
     direction 1 -4.48968e-011 -2.56583e-027   
     length 4.58538   
     axis 180 -30 -90   XYZ
    dof rx ry rz
    limits (-60.0 90.0)
           (-90.0 90.0)
           (-90.0 90.0)
  end
  begin
     id 19
     name lradius
     direction 1 -4.4898e-011 -5.50375e-027   
     length 2.68935   
     axis 180 -30 -90   XYZ
    dof rx
    limits (-10.0 170.0)
  end
  begin
     id 20
     name lwrist
     direction 1 -4.48939e-011 -1.48955e-026   
     length 1.34468   
     axis 9.0955e-015 90 90   XYZ
    dof ry
    limits (-180.0 0.0)
 end
  begin
     id 21 
     name lhand
     direction 1 -4.48936e-011 -2.97907e-026   
     length 0.585058   
     axis 1.90115e-014 90 90   XYZ
    dof rx rz
    limits (-90.0 90.0)
           (-45.0 45.0)
  end
  begin
     id 22 
     name lfingers
     direction 1 -4.49082e-011 -5.96235e-026   
     length 0.471689   
     axis 3.80223e-014 90 90   XYZ
    dof rx
    limits (0.0 90.0)
  end
  begin
     id 23
     name lthumb
     direction 0.707107 -6.3489e-011 0.707107   
     length 0.677253   
     axis -90 45 -3.84942e-014   XYZ
    dof rx rz
    limits (-45.0 45.0)
           (-45.0 45.0)
  end
  begin
     id 24 
     name rclavicle
     direction -0.923098 0.371783 0.0983239   
     length 3.19656  
     axis 0 0 0   XYZ 
    dof ry rz
    limits (-10.0 20.0)
           (-20.0 0.0)
  end
  begin
     id 25 
     name rhumerus
     direction -1 -4.48976e-011 -2.5492e-027  
     length 4.4745   
     axis 180 30 90   XYZ
    dof rx ry rz
    limits (-90.0 60.0)
           (-90.0 90.0)
           (-90.0 90.0)
  end
  begin
     id 26 
     name rradius
     direction -1 -4.48941e-011 -4.36555e-027   
     length 2.93896   
     axis 180 30 90   XYZ
    dof rx
    limits (-10.0 170.0)
  end
  begin
     id 27 
     name rwrist
     direction -1 -4.49044e-011 -1.49032e-026   
     length 1.46948   
     axis 9.0955e-015 -90 -90   XYZ
    dof ry
    limits (-180.0 0.0)
  end
  begin
     id 28
     name rhand
     direction -1 -4.48826e-011 -2.97749e-026   
     length 0.405092   
     axis 1.90115e-014 -90 -90   XYZ
    dof rx rz
    limits (-90.0 90.0)
           (-45.0 45.0)
  end
  begin
     id 29
     name rfingers
     direction -1 -4.49209e-011 -5.96602e-026   
     length 0.326596   
     axis 3.80223e-014 -90 -90   XYZ
    dof rx
    limits (0.0 90.0)
  end
  begin
     id 30
     name rthumb
     direction -0.707107 -6.34776e-011 0.707107   
     length 0.468928   
     axis -90 -45 3.84942e-014   XYZ
    dof rx rz
    limits (-45.0 45.0)
           (-45.0 45.0)
  end
:hierarchy
  begin
    root lhipjoint rhipjoint lowerback
    lhipjoint lfemur
    lfemur ltibia
    ltibia lfoot
    lfoot ltoes
    rhipjoint rfemur
    rfemur rtibia
    rtibia rfoot
    rfoot rtoes
    lowerback upperback
    upperback thorax
    thorax lowerneck lclavicle rclavicle
    lowerneck upperneck
    upperneck head
    lclavicle lhumerus
    lhumerus lradius
    lradius lwrist
    lwrist lhand lthumb
    lhand lfingers
    rclavicle rhumerus
    rhumerus rradius
    rradius rwrist
    rwrist rhand rthumb
    rhand rfingers
  end

#!OML:ASF H:\Punching\Project 1\Capture day 1\Session 1\female.ASF
:FULLY-SPECIFIED
:DEGREES
423
root -1.323 15.4027 1.97811 -22.9455 -28.491 12.7048
lowerback 6.73807 -0.330825 7.23747
upperback 1.4312 -0.186732 -7.61689
thorax -2.33398 -0.184252 -12.3515
lowerneck 2.41575 12.5114 16.1199
upperneck 40.0848 22.0242 -13.2045
head 18.3663 10.3164 -5.45691
rclavicle 3.37934e-015 8.36883e-014
rhumerus 15.4687 43.3651 -77.5506
rradius 123.746
rwrist -20.9873
rhand -27.0475 8.06715
rfingers 7.12502
rthumb -0.465975 -21.9121
lclavicle 3.37934e-015 8.36883e-014
lhumerus -11.0057 -17.6724 71.8524
lradius 142.082
lwrist -3.86911
lhand -31.8728 3.11791
lfingers 7.12502
lthumb -5.1259 33.0359
rfemur 3.49449 14.1796 20.1835
rtibia 37.2751
rfoot -18.4109 -12.8991
rtoes 12.4441
lfemur -109.261 20.5107 -21.4196
ltibia 103.56
lfoot 31.4632 1.55669
ltoes -1.10402
424
root -1.30544 15.3849 1.93048 -22.0418 -27.8193 12.2983
lowerback 6.81833 -0.394197 6.92374
upperback 1.30832 -0.289521 -7.51212
thorax -2.53579 -0.249768 -12.0302
lowerneck 1.99445 12.4307 16.0195
upperneck 39.9032 21.8205 -13.1577
head 18.2684 10.2051 -5.419
rclavicle -1.66979e-014 5.82439e-014
rhumerus 15.7433 42.8765 -76.7394
rradius 123.947
rwrist -21.3808
rhand -26.9639 8.16614
rfingers 7.12502
rthumb -0.385195 -21.8133
lclavicle -1.66979e-014 5.82439e-014
lhumerus -10.8704 -17.847 71.8888
lradius 142.049
lwrist -3.86207
lhand -31.6711 3.1565
lfingers 7.12502
lthumb -4.93114 33.0791
rfemur 2.29835 13.8519 20.2122
rtibia 37.9631
rfoot -18.517 -13.3588
rtoes 12.7931
lfemur -109.447 19.817 -22.5244
ltibia 107.099
lfoot 30.8003 0.790299
ltoes -1.03616
425
root -1.28852 15.3692 1.87936 -21.1765 -27.1402 11.8832
lowerback 6.96597 -0.459108 6.60775
upperback 1.19035 -0.392156 -7.39157
thorax -2.76813 -0.315149 -11.6912
lowerneck 1.57003 12.3418 15.9113
upperneck 39.7202 21.6011 -13.103
head 18.1653 10.0872 -5.37948
rclavicle -5.26282e-014 7.35503e-015
rhumerus 16.0149 42.3483 -75.905
rradius 124.125
rwrist -21.6268
rhand -26.9017 8.195
rfingers 7.12502
rthumb -0.325195 -21.7845
lclavicle -5.26282e-014 7.35503e-015
lhumerus -10.7311 -18.042 71.9494
lradius 142.063
lwrist -3.81419
lhand -31.3662 3.30764
lfingers 7.12502
lthumb -4.63676 33.2369
rfemur 1.16074 13.4937 20.2592
rtibia 38.5748
rfoot -18.5718 -13.7802
rtoes 13.1126
lfemur -109.35 19.1503 -23.5452
ltibia 110.483
lfoot 30.0964 0.0167651
ltoes -1.06638
426
root -1.27241 15.3554 1.82548 -20.309 -26.447 11.4458
lowerback 7.14045 -0.529906 6.30068
upperback 1.06707 -0.501558 -7.25414
thorax -3.02075 -0.383662 -11.3392
lowerneck 1.14032 12.2489 15.7994
upperneck 39.534 21.3728 -13.0421
head 18.0595 9.9658 -5.33821
rclavicle 2.83765e-014 2.10712e-014
rhumerus 16.2827 41.7894 -75.0518
rradius 124.278
rwrist -21.7243
rhand -26.8734 8.18253
rfingers 7.12502
rthumb -0.2978 -21.797
lclavicle 2.83765e-014 2.10712e-014
lhumerus -10.5888 -18.2473 72.0299
lradius 142.096
lwrist -3.76047
lhand -31.0226 3.52008
lfingers 7.12502
lthumb -4.30497 33.4563
rfemur 0.0442744 13.1026 20.3276
rtibia 39.1196
rfoot -18.5823 -14.1638
rtoes 13.4069
lfemur -108.996 18.5129 -24.4889
ltibia 113.699
lfoot 29.3533 -0.758759
ltoes -1.39698
427
root -1.25707 15.3426 1.76913 -19.3909 -25.7453 10.9722
lowerback 7.29391 -0.598345 6.03412
upperback 0.928115 -0.605958 -7.10605
thorax -3.27515 -0.449156 -11.0011
lowerneck 0.709159 12.1466 15.6887
upperneck 39.3397 21.1225 -12.9668
head 17.943 9.83723 -5.2947
rclavicle 3.926e-015 -1.35174e-014
rhumerus 16.5277 41.1857 -74.2001
rradius 124.404
rwrist -21.7041
rhand -26.8957 8.0719
rfingers 7.12502
rthumb -0.319314 -21.9076
lclavicle 3.926e-015 -1.35174e-014
lhumerus -10.4109 -18.4732 72.1052
lradius 142.099
lwrist -3.72239
lhand -30.7204 3.7076
lfingers 7.12502
lthumb -4.01317 33.6496
rfemur -1.10882 12.6875 20.4264
rtibia 39.6193
rfoot -18.555 -14.5178
rtoes 13.6801
lfemur -108.42 17.9048 -25.335
ltibia 116.734
lfoot 28.5103 -1.50362
ltoes -2.09795
